<?xml version="1.0" encoding="utf-8"?>
<!-- Generator: Adobe Illustrator 16.0.0, SVG Export Plug-In . SVG Version: 6.00 Build 0)  -->
<!DOCTYPE svg PUBLIC "-//W3C//DTD SVG 1.1//EN" "http://www.w3.org/Graphics/SVG/1.1/DTD/svg11.dtd">
<svg version="1.1" id="Layer_1" xmlns="http://www.w3.org/2000/svg" xmlns:xlink="http://www.w3.org/1999/xlink" x="0px" y="0px"
	 width="670.371px" height="195.062px" viewBox="0 0 670.371 195.062" enable-background="new 0 0 670.371 195.062"
	 xml:space="preserve">
<line fill="none" stroke="#BEBFBD" stroke-width="4.9961" stroke-linejoin="round" stroke-miterlimit="10" x1="147.087" y1="95.516" x2="524.561" y2="95.516"/>
<path fill-rule="evenodd" clip-rule="evenodd" fill="#832886" d="M365.995,95.517c0-27.593,22.375-49.961,49.976-49.961
	s49.976,22.368,49.976,49.961s-22.375,49.96-49.976,49.96S365.995,123.109,365.995,95.517L365.995,95.517z"/>
<text transform="matrix(1.0003 0 0 1 385.9849 112.9043)" fill="#FFFFFF" font-family="'Webdings'" font-size="59.9528"></text>
<path fill-rule="evenodd" clip-rule="evenodd" fill="#9C2844" d="M46.86,95.517c0-27.593,22.375-49.961,49.976-49.961
	s49.976,22.368,49.976,49.961s-22.375,49.96-49.976,49.96S46.86,123.109,46.86,95.517L46.86,95.517z"/>
<g>
	<path fill="#FFFFFF" stroke="#FFFFFF" stroke-width="1.7129" stroke-miterlimit="10" d="M102.136,116.482h-16.34l15.889-15.896
		h-31.79V89.023h31.79L85.796,73.128h16.34l21.669,21.677L102.136,116.482z"/>
</g>
<path fill-rule="evenodd" clip-rule="evenodd" fill="#05788C" d="M206.427,95.517c0-27.593,22.375-49.961,49.976-49.961
	s49.976,22.368,49.976,49.961s-22.375,49.96-49.976,49.96S206.427,123.109,206.427,95.517L206.427,95.517z"/>
<text transform="matrix(1.0003 0 0 1 222.9194 117.166)" fill="#FFFFFF" font-family="'Webdings'" font-size="66.9472"></text>
<path fill-rule="evenodd" clip-rule="evenodd" fill="#AA8530" d="M525.562,95.517c0-27.593,22.375-49.961,49.976-49.961
	s49.976,22.368,49.976,49.961s-22.375,49.96-49.976,49.96S525.562,123.109,525.562,95.517L525.562,95.517z"/>
<text transform="matrix(1.0003 0 0 1 535.5571 119.3672)" fill="#FFFFFF" stroke="#FFFFFF" stroke-width="2.2839" stroke-miterlimit="10" font-family="'Webdings'" font-size="79.937"></text>
</svg>
